<svg width="411" height="355" viewBox="0 0 411 355" fill="none" xmlns="http://www.w3.org/2000/svg">
<rect x="12.9961" y="136.764" width="37" height="41" rx="15" transform="rotate(-70 12.9961 136.764)" fill="#4E7570"/>
<rect x="386.527" y="102" width="37" height="41" rx="15" transform="rotate(70 386.527 102)" fill="#4E7570"/>
<path d="M57 105C57 47.0101 104.01 0 162 0H251C308.99 0 356 47.0101 356 105V124H57V105Z" fill="#4E7570"/>
<path d="M70 100C70 55.8172 105.817 20 150 20H263C307.183 20 343 55.8172 343 100V114H70V100Z" fill="#D5EEFC"/>
<ellipse cx="203.5" cy="116" rx="144.5" ry="6" fill="#4E7570"/>
<rect x="63" y="117" width="287" height="65" fill="#5B817C"/>
<path d="M62 117L107.033 175.5H16.9667L62 117Z" fill="#5B817C"/>
<path d="M350 117L395.033 175.5H304.967L350 117Z" fill="#5B817C"/>
<ellipse cx="17.276" cy="227.811" rx="6.61162" ry="54.5" transform="rotate(2.8535 17.276 227.811)" fill="#4E7570"/>
<ellipse cx="395.313" cy="228.761" rx="6.61162" ry="54.5" transform="rotate(-2.85 395.313 228.761)" fill="#4E7570"/>
<rect x="19" y="175" width="373" height="76" fill="#4E7570"/>
<ellipse cx="205.5" cy="174" rx="186.5" ry="8" fill="#4E7570"/>
<path d="M26 306C26 300.477 30.4772 296 36 296H76C81.5228 296 86 300.477 86 306V324C86 335.046 77.0457 344 66 344H46C34.9543 344 26 335.046 26 324V306Z" fill="#14181F"/>
<path d="M326 306C326 300.477 330.477 296 336 296H376C381.523 296 386 300.477 386 306V324C386 335.046 377.046 344 366 344H346C334.954 344 326 335.046 326 324V306Z" fill="#14181F"/>
<rect x="30.5" y="181.5" width="70" height="58" rx="20.5" fill="#FFEA92" stroke="black" stroke-width="3"/>
<rect x="312.5" y="181.5" width="70" height="58" rx="20.5" fill="#FFEA92" stroke="black" stroke-width="3"/>
<path d="M296.747 183.041C296.747 186.377 256.566 189.082 207 189.082C157.434 189.082 117.253 186.377 117.253 183.041C117.253 179.705 157.434 177 207 177C256.566 177 296.747 179.705 296.747 183.041Z" fill="black"/>
<path d="M296.747 237.959C296.747 241.295 256.566 244 207 244C157.434 244 117.253 241.295 117.253 237.959C117.253 234.623 157.434 231.918 207 231.918C256.566 231.918 296.747 234.623 296.747 237.959Z" fill="black"/>
<path d="M109 193.475C109 187.409 113.619 182.492 119.316 182.492H294.684C300.381 182.492 305 187.409 305 193.475V227.525C305 233.591 300.381 238.508 294.684 238.508H119.316C113.619 238.508 109 233.591 109 227.525V193.475Z" fill="black"/>
<path d="M294 185.5C294 188.538 255.049 191 207 191C158.951 191 120 188.538 120 185.5C120 182.462 158.951 180 207 180C255.049 180 294 182.462 294 185.5Z" fill="#B7B7B7"/>
<path d="M294 235.5C294 238.538 255.049 241 207 241C158.951 241 120 238.538 120 235.5C120 232.462 158.951 230 207 230C255.049 230 294 232.462 294 235.5Z" fill="#B7B7B7"/>
<path d="M112 195C112 189.477 116.477 185 122 185H292C297.523 185 302 189.477 302 195V226C302 231.523 297.523 236 292 236H122C116.477 236 112 231.523 112 226V195Z" fill="#B7B7B7"/>
<rect x="124" y="192" width="170" height="4" fill="#EFEFEF"/>
<rect x="124" y="203" width="170" height="4" fill="#EFEFEF"/>
<rect x="124" y="214" width="170" height="4" fill="#EFEFEF"/>
<rect x="124" y="225" width="170" height="4" fill="#EFEFEF"/>
<rect y="251" width="411" height="45" rx="10" fill="#B7B7B7"/>
<ellipse cx="205.5" cy="295.5" rx="195.5" ry="5.5" fill="#B7B7B7"/>
</svg>
